<svg width="25" height="20" viewBox="0 0 25 20" fill="none" xmlns="http://www.w3.org/2000/svg">
<path d="M1.87435 19.1191C1.13216 19.1191 0.555988 18.543 0.555988 17.8008V12.0195C0.555988 10.3105 0.878254 9.35352 1.78646 8.17188L2.64583 7.07812C3.00716 5.32031 3.66146 3.47461 3.99349 2.75195C4.54036 1.60938 5.58529 0.90625 6.94271 0.740234C7.63607 0.652344 9.73568 0.59375 12.3333 0.59375C14.9212 0.59375 17.0208 0.642578 17.724 0.740234C19.0716 0.916016 20.1165 1.60938 20.6634 2.75195C20.9954 3.47461 21.6497 5.32031 22.0111 7.07812L22.8704 8.17188C23.7884 9.35352 24.1009 10.3105 24.1009 12.0195V17.8008C24.1009 18.543 23.5247 19.1191 22.7826 19.1191H21.6107C20.8587 19.1191 20.2923 18.543 20.2923 17.8008V16.1113C18.1146 16.2578 14.9115 16.3555 12.3333 16.3555C9.74544 16.3555 6.54232 16.2578 4.37435 16.1113V17.8008C4.37435 18.543 3.79818 19.1191 3.04622 19.1191H1.87435ZM4.82357 6.18945C4.72591 6.60938 4.90169 6.79492 5.34114 6.76562C6.84505 6.67773 8.74935 6.58008 12.3333 6.58008C15.9076 6.58008 17.8118 6.67773 19.3158 6.76562C19.7552 6.79492 19.9408 6.60938 19.8333 6.18945C19.599 5.21289 19.1888 3.9043 18.8861 3.38672C18.5931 2.87891 18.2806 2.67383 17.6849 2.58594C16.9915 2.46875 15.3216 2.42969 12.3333 2.42969C9.33529 2.42969 7.66536 2.48828 6.972 2.58594C6.3763 2.66406 6.05404 2.87891 5.77083 3.38672C5.47786 3.91406 5.03841 5.21289 4.82357 6.18945ZM5.18489 13.6309C6.11263 13.6309 6.81575 12.9277 6.81575 12C6.81575 11.0723 6.11263 10.3691 5.18489 10.3691C4.25716 10.3691 3.55404 11.0723 3.55404 12C3.55404 12.9277 4.25716 13.6309 5.18489 13.6309ZM19.472 13.6309C20.3997 13.6309 21.1029 12.9277 21.1029 12C21.1029 11.0723 20.3997 10.3691 19.472 10.3691C18.5443 10.3691 17.8411 11.0723 17.8411 12C17.8411 12.9277 18.5443 13.6309 19.472 13.6309ZM9.69661 13.2305H14.9603C15.6536 13.2305 16.1419 12.7422 16.1419 12.0488C16.1419 11.3555 15.6536 10.8672 14.9603 10.8672H9.69661C9.00325 10.8672 8.51497 11.3555 8.51497 12.0488C8.51497 12.7422 9.00325 13.2305 9.69661 13.2305Z" fill="#EDEDED"/>
</svg>
