<svg width="22" height="22" viewBox="0 0 22 22" fill="none" xmlns="http://www.w3.org/2000/svg">
<path d="M9.76822 21.3203C9.18228 21.3203 8.76236 20.9785 8.62564 20.4121L8.13736 18.332C7.79556 18.2148 7.4733 18.0879 7.18033 17.9512L5.37369 19.0645C4.89517 19.3672 4.32877 19.3184 3.92838 18.918L2.67838 17.668C2.27798 17.2676 2.22916 16.6914 2.54166 16.2031L3.64517 14.4062C3.50845 14.1035 3.3815 13.791 3.28384 13.4883L1.194 12.9902C0.627594 12.8535 0.285797 12.4336 0.285797 11.8574V10.0996C0.285797 9.52344 0.627594 9.10352 1.194 8.9668L3.26431 8.46875C3.37173 8.11719 3.50845 7.80469 3.62564 7.54102L2.52213 5.70508C2.21939 5.20703 2.24869 4.66992 2.65884 4.25977L3.92838 3.00977C4.32877 2.60938 4.85611 2.55078 5.33463 2.84375L7.17056 3.9668C7.46353 3.82031 7.79556 3.69336 8.13736 3.57617L8.62564 1.49609C8.76236 0.919922 9.18228 0.578125 9.76822 0.578125H11.5553C12.1315 0.578125 12.5514 0.919922 12.6881 1.48633L13.1862 3.5957C13.5378 3.71289 13.8503 3.83984 14.1335 3.97656L15.9792 2.84375C16.4577 2.55078 16.9753 2.63867 17.3854 3.00977L18.6549 4.25977C19.0651 4.66992 19.0944 5.20703 18.7917 5.70508L17.6881 7.54102C17.8053 7.80469 17.942 8.11719 18.0592 8.46875L20.1295 8.9668C20.696 9.10352 21.0378 9.52344 21.0378 10.0996V11.8574C21.0378 12.4336 20.696 12.8535 20.1295 12.9902L18.0397 13.4883C17.942 13.791 17.8053 14.1035 17.6686 14.4062L18.7721 16.2031C19.0944 16.6914 19.0358 17.2676 18.6354 17.668L17.3854 18.918C16.985 19.3184 16.4284 19.3672 15.9499 19.0645L14.1335 17.9512C13.8405 18.0879 13.5182 18.2148 13.1862 18.332L12.6881 20.4121C12.5612 20.9785 12.1315 21.3203 11.5553 21.3203H9.76822ZM10.6569 14.3672C12.5417 14.3672 14.0749 12.834 14.0749 10.9492C14.0749 9.06445 12.5417 7.53125 10.6569 7.53125C8.77213 7.53125 7.23892 9.06445 7.23892 10.9492C7.23892 12.834 8.77213 14.3672 10.6569 14.3672Z" fill="#EDEDED"/>
</svg>
