<svg width="24" height="18" viewBox="0 0 24 18" fill="none" xmlns="http://www.w3.org/2000/svg">
<path d="M20.3496 0.511719C22.459 0.511719 23.5527 1.5957 23.5527 3.68555V4.56445H0.447266V3.68555C0.447266 1.5957 1.54102 0.511719 3.65039 0.511719H20.3496ZM4.51953 14.3008H6.91211C7.48828 14.3008 7.86914 13.9102 7.86914 13.3633V11.5566C7.86914 11.0098 7.48828 10.6191 6.91211 10.6191H4.51953C3.94336 10.6191 3.5625 11.0098 3.5625 11.5566V13.3633C3.5625 13.9102 3.94336 14.3008 4.51953 14.3008ZM3.65039 17.4062C1.54102 17.4062 0.447266 16.332 0.447266 14.2422V6.84961H23.5527V14.2422C23.5527 16.3223 22.459 17.4062 20.3496 17.4062H3.65039Z" fill="#EDEDED"/>
</svg>
